<svg width="4980" height="1011" viewBox="0 0 4980 1011" fill="none" xmlns="http://www.w3.org/2000/svg">
<path d="M2735.02 558.126C2775.87 603.828 2761.31 722.531 2698.41 747.337C2670.63 758.324 2644.27 746.393 2620.41 760.346C2608.47 755.56 2603.62 754.414 2590.54 753.336C2530.61 748.28 2420.17 748.078 2360.37 753.336C2347.02 754.482 2342.44 755.897 2330.51 760.346C2304.21 745.854 2275.7 759.133 2245.76 747.337C2186.37 723.947 2185.35 634.093 2196.34 582.325C2198.57 571.81 2210.97 559.272 2209.22 551.385L2735.09 558.126H2735.02Z" fill="#A5CAB2"/>
<path d="M2647.37 355.905C2665.11 363.185 2671.44 367.904 2674.34 369.387C2742.1 403.697 2771.15 491.663 2735.02 558.126L2209.15 551.385C2208.75 549.7 2198.1 542.15 2196.01 527.658C2188.19 472.721 2213.13 397.495 2263.09 369.387C2276.3 361.972 2287.43 358.467 2296.8 355.905C2359.83 338.717 2507.62 298.34 2647.37 355.905Z" fill="#E07F71"/>
<path d="M2620.41 760.346C2624.92 762.166 2676.16 787.578 2712.16 857.412C2740.61 912.55 2743.98 965.397 2743.38 996.27H2604.77C2606.18 983.664 2606.52 964.453 2598.43 943.962C2578 892.665 2517.46 867.051 2467.23 868.197C2420.44 869.208 2364.89 893.811 2343.18 943.086C2334.08 963.645 2333.27 983.125 2334.01 996.27H2202.55C2192.03 913.292 2249.74 790.611 2330.64 760.346C2342.57 755.897 2347.16 754.482 2360.51 753.336C2420.31 748.078 2530.74 748.28 2590.68 753.336C2603.82 754.414 2608.68 755.56 2620.54 760.346H2620.41Z" fill="#252D35"/>
<path d="M2586.7 288.499C2598.23 281.556 2593.84 263.356 2592.7 252.301C2583.46 162.381 2590.47 118.027 2603.75 87.829C2607.33 79.6728 2611.91 68.8203 2621.55 57.0915C2661.73 8.22163 2733.6 10.2438 2754.3 11.592V344.918C2744.25 354.76 2735.96 356.849 2730.03 356.782C2714.46 356.512 2707.71 340.874 2691.4 342.829C2689.44 343.031 2681.56 343.975 2676.77 350.446C2671.04 358.13 2673.94 367.971 2674.41 369.454C2667.33 365.882 2653.31 356.917 2647.44 355.973C2627.76 333.661 2607.66 309.53 2586.76 288.566L2586.7 288.499Z" fill="#F6CF79"/>
<path d="M2364.22 281.758C2341.02 305.014 2318.71 331.37 2296.8 355.906C2291.27 357.254 2268.41 366.421 2263.09 369.387H2188.86C2188.86 301.98 2188.86 234.573 2188.93 167.167V133.463C2188.93 89.9186 2188.93 46.3738 2188.86 2.82904C2204.97 -0.204262 2230.32 -2.42869 2258.17 7.00826C2333.41 32.4206 2354.1 118.095 2355.72 125.105L2364.22 281.758ZM2250.28 105.827C2264.44 126.049 2314.06 101.041 2293.83 72.3928C2276.91 48.5308 2235.78 85.1327 2250.28 105.827Z" fill="#F6CF79"/>
<path d="M2586.7 288.499C2607.6 309.462 2627.69 333.594 2647.37 355.906H2296.8C2318.71 331.37 2341.02 305.014 2364.22 281.758C2477.07 168.65 2477.21 178.693 2586.7 288.499Z" fill="#CD6A5C"/>
<path d="M2229.72 122.341H2172.61C2162.67 122.341 2154.61 130.384 2154.61 140.305C2154.61 150.226 2162.67 158.269 2172.61 158.269H2229.72C2239.66 158.269 2247.72 150.226 2247.72 140.305C2247.72 130.384 2239.66 122.341 2229.72 122.341Z" fill="#32373E"/>
<path d="M2272.93 114.59C2287.12 114.59 2298.62 103.091 2298.62 88.9076C2298.62 74.7238 2287.12 63.2256 2272.93 63.2256C2258.74 63.2256 2247.24 74.7238 2247.24 88.9076C2247.24 103.091 2258.74 114.59 2272.93 114.59Z" fill="#252526"/>
<path d="M1775.92 967.015C1706.48 996.607 1678.3 958.589 1635.35 914.236C1561.53 838.134 1495.86 751.988 1423.25 674.74C1420.42 671.774 1405.39 651.417 1402.83 664.763L1396.22 668.134L1402.83 671.504C1402.35 675.885 1403.03 680.536 1402.83 684.985C1402.56 691.726 1403.03 698.467 1402.83 705.207C1402.56 714.172 1402.96 723.205 1402.83 732.17C1402.42 761.29 1403.5 790.679 1402.83 819.799C1402.56 833.28 1403.3 846.762 1402.83 860.243C1402.56 869.208 1403.43 878.308 1402.83 887.206C1402.56 891.654 1403.3 896.305 1402.83 900.687C1399.86 928.458 1399.25 942.142 1375.86 961.353C1373.57 963.24 1371.68 966.678 1369.12 968.094C1308.17 1026.94 1233.13 985.822 1208.93 915.921L1207.25 209.768C1208.46 198.241 1214.46 172.829 1220.46 163.999C1221.67 162.313 1247.97 135.418 1249.65 134.205C1284.1 108.523 1351.05 122.004 1379.57 152.135C1400.6 174.379 1400.6 192.04 1402.83 219.879C1404.24 237.472 1402.35 256.009 1402.83 273.804C1403.43 298.408 1402.62 323.281 1402.83 347.952C1403.03 368.915 1400.13 395.878 1402.83 415.358L1396.22 418.729L1402.83 422.099L1652.81 149.641C1737.29 108.86 1826.49 191.163 1783.07 279.803C1757.58 331.841 1632.99 443.467 1588.16 496.179C1581.96 503.459 1557.89 532.713 1558.77 538.78C1582.23 570.866 1608.99 601.468 1635.35 631.127C1672.84 673.459 1817.11 808.879 1826.01 851.682C1835.59 897.991 1822.17 947.332 1775.92 967.015Z" fill="#6496BD"/>
<path d="M189.292 317.619V988.316H71.3091C53.0386 988.316 0.519531 940.726 0.519531 924.279V192.916C52.0274 253.987 115.131 289.038 189.292 317.619Z" fill="#8CB6D8"/>
<path d="M340.983 988.316H243.226C243.092 925.493 243.429 862.4 243.226 799.577C325.747 797.892 395.121 794.454 452.426 728.8C457.483 723.003 457.078 714.442 458.966 711.948C531.306 616.703 542.835 513.368 475.214 409.225C382.85 266.929 148.503 298.812 57.6904 179.57C20.273 130.43 58.0949 122.139 104.749 118.499C395.188 95.7833 683.605 168.852 714.28 507.234C733.967 723.745 578.162 988.316 340.983 988.316Z" fill="#8CB6D8"/>
<path d="M458.966 684.986C457.078 687.48 457.483 696.04 452.426 701.837C395.12 767.492 325.747 770.929 243.226 772.614C242.957 673.864 243.496 574.776 243.226 475.957C378.738 457.286 477.034 547.611 459.033 684.986H458.966Z" fill="#E07F71"/>
<path d="M1402.83 644.541L1396.22 641.171L1402.83 637.801C1402.62 640.025 1403.1 642.317 1402.83 644.541Z" fill="#7B9EB3"/>
<path d="M1402.83 395.137L1396.22 391.766L1402.83 388.396C1403.1 390.62 1402.62 392.912 1402.83 395.137Z" fill="#7B9EB3"/>
<path d="M1107.4 910.259C1107.4 951.377 1084.95 996.27 1025.15 996.27H881.209C819.521 996.27 798.959 951.377 798.959 910.259C798.959 828.023 855.051 807.464 855.051 753.269V570.125C864.085 575.45 876.827 584.347 888.693 598.705C905.21 618.657 911.75 639.014 914.514 650.473C914.716 651.215 913.773 580.977 869.074 550.442C849.051 536.758 829.095 536.893 803.071 511.953C796.532 505.684 786.756 495.64 782.104 486.001C750.35 420.549 899.884 304.677 974.652 304.677C1028.86 304.677 1049.42 358.872 1049.42 413.067V753.269C1049.42 807.464 1107.4 828.023 1107.4 910.259Z" fill="#8CB6D8"/>
<path d="M860.646 138.384C860.646 78.5944 909.255 29.9941 969.056 29.9941C1028.86 29.9941 1077.46 78.5944 1077.46 138.384C1077.46 198.174 1028.86 246.774 969.056 246.774C909.255 246.774 860.646 198.174 860.646 138.384Z" fill="#6496BD"/>
<path d="M4548.71 429.244C4626.52 360.287 4689.15 267.468 4761.02 193.253C4781.51 172.087 4797.42 149.708 4828.37 146.001C4919.31 135.216 4975.54 217.991 4925.18 296.722C4887.29 355.973 4790.55 437.468 4740.79 496.583C4733.91 504.74 4704.25 540.061 4704.79 546.06C4707.35 556.171 4714.5 563.114 4720.56 571.001C4783.8 653.035 4889.85 734.057 4953.09 817.035C5023.75 909.719 4941.43 1017.84 4840.37 976.924C4826.95 971.464 4793.78 934.39 4781.24 921.448C4707.49 845.346 4642.63 758.054 4568.87 682.154C4562.4 675.548 4560.11 669.482 4548.78 671.908V938.165C4548.78 966.206 4497.95 998.09 4470.64 1001.59C4391.63 1011.64 4358.32 963.712 4352.93 891.25C4337.16 677.975 4365.54 445.489 4352.93 230.125C4351.45 146.877 4436.26 96.5918 4507.93 143.035C4519.99 150.854 4548.71 183.412 4548.71 196.623V429.177V429.244Z" fill="#E07F71"/>
<path d="M3228.59 1005.1C3193.8 1001.59 3124.02 966.746 3124.02 927.65V209.768C3142.9 230.057 3171.15 256.076 3210.25 279.197C3255.22 305.755 3297.16 318.158 3326.28 324.359V796.206C3524.56 837.459 3668.97 731.9 3649.76 523.344C3644.7 468.745 3621.3 431.738 3616.85 424.391C3578.43 360.624 3519.7 332.718 3489.16 318.764C3463.75 307.103 3424.85 297.801 3347.18 279.197C3280.98 263.356 3260.08 260.997 3230.75 241.112C3198.12 219.003 3159.76 178.356 3169.73 152.944C3175.94 137.036 3199.4 130.565 3221.44 128.543C3519.03 101.176 3822.89 163.864 3852.01 516.603C3884.64 911.202 3569.93 1039.21 3228.59 1005.1Z" fill="#F8CC6E"/>
<path d="M4243.98 916.864C4243.98 957.983 4221.53 1002.88 4161.73 1002.88H4017.79C3956.11 1002.88 3935.54 957.983 3935.54 916.864C3935.54 834.628 3991.63 814.069 3991.63 759.874V576.73C3999.73 581.044 4010.51 588.054 4020.96 598.974C4037.21 616.096 4044.49 634.295 4047.73 644.811C4035.52 591.964 4023.39 573.157 4013.95 566.552C4013.95 566.552 3998.51 555.699 3978.83 537.701C3978.76 537.634 3978.62 537.499 3978.62 537.499C3978.62 537.499 3978.62 537.499 3978.56 537.432C3963.59 520.58 3939.32 533.725 3918.76 492.606C3887 427.154 4036.54 311.282 4111.3 311.282C4165.51 311.282 4186.07 365.477 4186.07 419.672V759.874C4186.07 814.069 4244.05 834.628 4244.05 916.864H4243.98Z" fill="#F8CC6E"/>
<path d="M3997.23 144.922C3997.23 85.1325 4045.84 36.5322 4105.64 36.5322C4165.44 36.5322 4214.05 85.1325 4214.05 144.922C4214.05 204.712 4165.44 253.312 4105.64 253.312C4045.84 253.312 3997.23 204.712 3997.23 144.922Z" fill="#E07F71"/>
</svg>
